<?xml version="1.0" standalone="no"?><!DOCTYPE svg PUBLIC "-//W3C//DTD SVG 1.1//EN" "http://www.w3.org/Graphics/SVG/1.1/DTD/svg11.dtd"><svg t="1660980343408" class="icon" viewBox="0 0 1024 1024" version="1.1" xmlns="http://www.w3.org/2000/svg" p-id="1503" xmlns:xlink="http://www.w3.org/1999/xlink" width="200" height="200"><defs><style type="text/css"></style></defs><path d="M333.312 917.333333A251.136 251.136 0 0 1 85.333333 663.722667V360.277333A251.136 251.136 0 0 1 333.312 106.666667h357.333333A251.136 251.136 0 0 1 938.666667 360.277333v303.488a251.136 251.136 0 0 1-247.978667 253.568zM147.370667 360.277333v303.488a188.330667 188.330667 0 0 0 185.984 190.165334h357.333333a188.330667 188.330667 0 0 0 185.984-190.165334v-11.818666h-136.533333a145.621333 145.621333 0 0 1-7.765334-290.816l7.808-0.213334h136.533334v-0.64a188.330667 188.330667 0 0 0-185.984-190.165333H333.312a188.330667 188.330667 0 0 0-185.941333 190.165333z m512.64 146.133334a81.408 81.408 0 0 0 73.856 81.877333l6.272 0.213333h136.533333V424.362667h-136.533333a81.066667 81.066667 0 0 0-80.128 82.048z m86.314666 29.141333a31.786667 31.786667 0 0 1-4.266666-63.189333l4.266666-0.256h12.8a31.744 31.744 0 0 1 4.266667 63.146666l-4.266667 0.298667zM303.872 361.984a31.744 31.744 0 0 1-4.266667-63.146667l4.266667-0.298666h223.232a31.744 31.744 0 0 1 4.266667 63.146666l-4.266667 0.298667z" fill="#200E32" p-id="1504"></path></svg>